<?xml version="1.0" standalone="no"?>
<!DOCTYPE svg PUBLIC "-//W3C//DTD SVG 20010904//EN"
 "http://www.w3.org/TR/2001/REC-SVG-20010904/DTD/svg10.dtd">
<svg version="1.0" xmlns="http://www.w3.org/2000/svg"
 width="300.000000pt" height="300.000000pt" viewBox="0 0 300.000000 300.000000"
 preserveAspectRatio="xMidYMid meet">
<metadata>
Created by potrace 1.10, written by Peter Selinger 2001-2011
</metadata>
<g transform="translate(0.000000,300.000000) scale(0.100000,-0.100000)"
fill="#000000" stroke="none">
<path d="M1645 2542 c-16 -11 -35 -25 -41 -33 -25 -31 -434 -1117 -434 -1152
0 -45 47 -102 90 -112 38 -8 91 9 117 38 29 31 443 1115 443 1159 0 40 -28 81
-70 103 -38 20 -69 19 -105 -3z m115 -59 c17 -22 20 -36 16 -63 -9 -50 -402
-1070 -424 -1100 -14 -18 -30 -26 -59 -28 -34 -3 -44 1 -62 24 -11 15 -21 37
-21 50 0 20 383 1033 412 1088 22 42 41 56 79 56 29 0 42 -6 59 -27z"/>
<path d="M855 2496 c-16 -8 -138 -109 -270 -226 -317 -280 -342 -305 -350
-340 -15 -67 1 -85 303 -353 158 -140 297 -259 309 -265 48 -26 125 -6 157 40
24 33 20 99 -6 136 -13 17 -121 117 -241 223 -174 153 -216 194 -205 204 7 6
111 98 231 204 119 106 222 201 227 211 30 55 1 134 -60 165 -35 18 -56 18
-95 1z m105 -64 c26 -32 25 -63 -1 -96 -12 -15 -115 -110 -229 -212 -115 -101
-212 -194 -215 -205 -11 -32 12 -57 231 -251 109 -98 207 -187 217 -199 25
-30 22 -75 -8 -104 -32 -33 -73 -32 -117 3 -54 43 -532 467 -546 485 -20 23
-18 75 4 102 30 38 554 495 576 504 32 12 66 1 88 -27z"/>
<path d="M2023 2490 c-59 -36 -78 -100 -45 -156 12 -22 385 -362 470 -429 1
-1 -103 -95 -233 -209 -253 -223 -264 -238 -244 -310 19 -70 108 -108 172 -74
23 12 533 460 580 509 21 23 27 39 27 75 0 25 -4 54 -10 64 -11 20 -570 518
-604 537 -31 18 -77 15 -113 -7z m91 -34 c18 -8 58 -36 88 -62 30 -27 88 -79
129 -115 384 -339 366 -322 375 -356 15 -55 20 -49 -436 -453 -158 -140 -188
-153 -235 -105 -25 24 -31 57 -19 90 4 9 105 104 225 211 120 106 223 203 229
213 7 14 7 27 -1 45 -7 14 -110 111 -230 217 -122 107 -223 204 -229 220 -15
35 3 77 40 96 31 16 24 16 64 -1z"/>
<path d="M510 783 c-8 -3 -28 -17 -44 -32 l-29 -26 5 28 c5 26 3 27 -36 27
l-41 0 0 -140 0 -140 42 0 42 0 3 93 3 92 47 15 c46 14 48 17 48 53 0 37 -7
42 -40 30z"/>
<path d="M780 779 c-14 -5 -33 -20 -42 -32 l-18 -22 0 28 c0 25 -3 27 -37 27
l-38 0 0 -140 0 -140 43 0 42 0 0 85 c0 72 3 88 20 105 23 23 50 26 68 8 8 -8
12 -46 12 -105 l0 -93 43 0 42 0 -3 82 c-3 73 -1 86 18 106 11 12 29 22 38 22
34 0 42 -21 42 -117 l0 -93 46 0 c43 0 46 2 40 23 -3 12 -6 65 -6 118 0 121
-14 144 -83 144 -36 0 -52 -6 -75 -28 -28 -27 -30 -27 -35 -8 -9 35 -67 50
-117 30z m106 -70 c3 -6 2 -15 -4 -21 -6 -6 -15 -2 -26 13 -9 13 -16 27 -16
32 0 10 36 -9 46 -24z"/>
<path d="M1283 771 c-55 -25 -87 -85 -80 -148 6 -58 30 -91 84 -115 62 -27
122 -18 171 27 l36 33 -38 10 c-30 9 -41 8 -52 -3 -26 -25 -55 -28 -83 -7 -54
40 -41 47 75 44 l107 -4 -5 52 c-6 60 -42 105 -97 120 -50 14 -70 12 -118 -9z
m115 -63 c6 -6 12 -18 12 -27 0 -13 -11 -16 -60 -16 -58 -1 -69 6 -52 31 21
32 68 37 100 12z m-128 -68 c0 -25 -18 -36 -26 -16 -8 21 3 49 16 41 5 -3 10
-15 10 -25z"/>
<path d="M1750 779 c-14 -6 -36 -20 -49 -32 l-24 -22 7 28 c6 26 5 27 -34 27
l-40 0 0 -140 0 -140 46 0 45 0 -2 85 c-2 94 12 125 57 125 35 0 46 -31 42
-126 l-3 -84 43 0 42 0 0 119 c0 98 -3 122 -17 140 -21 25 -77 35 -113 20z"/>
<path d="M2073 771 c-53 -25 -83 -71 -83 -129 0 -90 58 -147 150 -147 91 0
150 57 150 145 0 112 -113 180 -217 131z m111 -80 c27 -29 18 -89 -16 -114
l-28 -21 -27 21 c-55 40 -36 133 27 133 15 0 35 -9 44 -19z"/>
<path d="M2535 778 c-11 -6 -28 -20 -37 -32 l-18 -21 0 28 c0 25 -3 27 -40 27
l-40 0 0 -140 0 -140 45 0 44 0 3 93 3 92 43 15 c39 13 42 17 42 52 0 40 -10
46 -45 26z"/>
<path d="M692 423 c2 -5 10 -25 18 -45 15 -40 27 -48 36 -23 6 14 8 13 19 -2
8 -10 15 -16 17 -13 13 18 38 83 34 88 -3 3 -13 -12 -22 -33 -13 -33 -17 -36
-25 -22 -7 11 -6 24 1 37 7 13 7 20 0 20 -5 0 -10 -8 -10 -17 0 -15 -2 -14
-16 3 -14 18 -15 18 -4 -4 7 -14 8 -28 1 -39 -8 -14 -11 -11 -25 20 -8 20 -18
37 -21 37 -4 0 -5 -3 -3 -7z"/>
<path d="M890 385 l0 -45 38 2 c36 1 36 1 5 5 -40 5 -44 30 -5 36 l27 4 -27 2
c-37 1 -37 28 0 34 25 4 25 4 -5 6 -33 1 -33 0 -33 -44z"/>
<path d="M1030 384 c0 -45 0 -45 33 -42 28 3 32 7 33 33 2 45 -5 55 -37 55
-28 0 -29 -2 -29 -46z m50 21 c0 -8 -9 -15 -20 -15 -11 0 -20 7 -20 15 0 8 9
15 20 15 11 0 20 -7 20 -15z m8 -42 c2 -8 -6 -13 -22 -13 -17 0 -26 5 -26 16
0 19 41 16 48 -3z"/>
<path d="M1270 385 c0 -43 1 -45 28 -45 15 0 33 5 40 12 28 28 1 78 -44 78
-22 0 -24 -4 -24 -45z m53 20 c20 -19 10 -55 -14 -55 -15 0 -19 7 -19 35 0 38
10 44 33 20z"/>
<path d="M1427 423 c-4 -3 -7 -24 -7 -45 0 -38 0 -38 38 -37 30 2 32 3 10 6
-34 5 -37 30 -5 36 l22 4 -22 2 c-33 2 -29 29 5 34 26 4 26 4 -4 6 -17 0 -34
-2 -37 -6z"/>
<path d="M1561 422 c-1 -19 27 -82 36 -82 10 0 45 81 38 88 -3 3 -12 -12 -21
-34 l-17 -39 -18 40 c-9 22 -18 34 -18 27z"/>
<path d="M1710 385 c0 -44 0 -45 33 -44 30 2 30 2 5 6 -36 6 -36 30 0 36 l27
4 -27 2 c-17 0 -28 7 -28 15 0 8 12 17 28 19 25 4 25 4 -5 6 -33 1 -33 0 -33
-44z"/>
<path d="M1852 388 l-2 -48 33 1 c29 2 29 2 5 6 -24 4 -27 10 -31 46 l-4 42
-1 -47z"/>
<path d="M1991 416 c-7 -8 -11 -27 -9 -43 2 -23 8 -29 35 -31 28 -3 33 0 39
24 4 15 2 34 -3 43 -14 22 -47 25 -62 7z m49 -11 c19 -23 8 -50 -20 -50 -16 0
-26 6 -28 18 -4 18 14 47 28 47 4 0 13 -7 20 -15z"/>
<path d="M2141 383 c1 -27 3 -40 6 -30 3 10 14 17 28 17 27 0 40 26 24 46 -6
8 -22 14 -35 14 -22 0 -24 -4 -23 -47z m47 14 c2 -12 -3 -17 -17 -17 -15 0
-21 6 -21 21 0 25 33 22 38 -4z"/>
<path d="M2280 385 c0 -44 0 -45 33 -44 30 2 30 2 5 6 -34 5 -37 30 -5 36 l22
4 -22 2 c-33 2 -29 29 5 34 25 4 25 4 -5 6 -33 1 -33 0 -33 -44z"/>
<path d="M2421 383 c1 -27 3 -40 6 -30 2 9 9 17 15 17 6 0 17 -8 25 -17 14
-17 14 -17 9 1 -4 10 -1 25 5 32 16 19 -6 44 -37 44 -22 0 -24 -4 -23 -47z
m47 14 c2 -12 -3 -17 -17 -17 -15 0 -21 6 -21 21 0 25 33 22 38 -4z"/>
</g>
</svg>
